<svg id="Layer_1" data-name="Layer 1" xmlns="http://www.w3.org/2000/svg" viewBox="0 0 1766.69 2493.68"><defs><style>.cls-1{fill:#264de4;}.cls-2{fill:#2965f1;}.cls-3{fill:#ebebeb;}.cls-4{fill:#fff;}</style></defs><path class="cls-1" d="M885.42,2493.68,163.94,2293.39,3.16,490.07H1769.84L1608.9,2293.12,885.42,2493.68Z" transform="translate(-3.16)"/><path class="cls-2" d="M1471.11,2178.3,1608.64,637.51H886.5V2340.37l584.61-162.07Z" transform="translate(-3.16)"/><path class="cls-3" d="M371.74,1306.34l19.82,221.17H886.5V1306.34ZM331.91,858.69,352,1079.86H886.5V858.69ZM886.5,1880.75l-1,.25-246.32-66.51L623.47,1638.1h-222l31,347.27,453.05,125.77,1-.28Z" transform="translate(-3.16)"/><path d="M418.94,0H686.8V112H531V224H686.82v112H418.94ZM740.39,0h267.87V97.41H852.41v19.48h155.85v224H740.39V238.64H896.24V219.16H740.38V0Zm321.45,0h267.87V97.41H1173.86v19.48h155.85v224H1061.84V238.64h155.85V219.16H1061.85V0Z" transform="translate(-3.16)"/><path class="cls-4" d="M1399.84,1306.34l39.93-447.65h-554v221.17h311.65l-20.13,226.48H885.74v221.17h272.35l-25.68,286.85-246.68,66.57V2111l453.42-125.66,3.32-37.36,52-582.28,5.39-59.39Z" transform="translate(-3.16)"/></svg>